<?xml version="1.0" encoding="UTF-8"?>
<svg version="1.1" viewBox="0 0 800 800" width="200" height="200" xmlns="http://www.w3.org/2000/svg">
<path transform="translate(410,178)" d="m0 0 13 4 21 12 26 15 28 16 25 15 8 7 4 9v40h-36l-4 5-11 9-8 9h-108l-4-5v-2h-2v-2l-5-2-9-2-9 2-5 4-5 10v10l4 8 5 4 9 3 9-2 5-3 7-8h115l3-1v-2l5-5 10-9h2l2-5 29-1 2 2v68l-2 11-6 8-5 4-22 13-25 14-21 12-26 15-12 6-10 2-12-3-18-10-24-14-56-32-11-8-5-6-3-12v-13h29l8 2 15 15 7 5 80 1 33 1 7 7 10 4 9-1 8-5 5-8v-12l-4-7-7-6-3-1h-12l-6 3-6 9h-110l-5-5v-2l-4-2-13-12-7-1h-29l-5-1v-60l1-1 41-1 12-12 6-5 3-4h110l6 8 8 3h10l8-4 6-9 1-8-2-8-4-6v-2l-4-1-3-2h-12l-8 4-4 4-2 4-115 1-4 2-1 3-7 6-6 5-1 2h-2l-1 3-2 1h-33l-1-1v-11l2-9 6-9 11-8 28-16 26-15 24-14 20-11 5-2z" fill="#7C75EB"/>
<path transform="translate(403,182)" d="m0 0h9l16 8 27 15 15 9 16 9 14 7 16 9 9 5 7 8 1 2v39l-1 1-34 1-10 9-8 7-5 6h-105v-2h-3v-2h-2l-5-5-7-3h-8l-7 1-7-2-9-6 1-6h2l1-5h2l2-4 7-6 4-6 107-1 8 10 2 1v2l18-1 7-2 3-1 2-5 3-8 1-3v-10l-4-8-7-6-3-1h-13l-7 3-8 7-4 1-5 1h-104l-8 6h-2l-2 4-6 4-3 4h-2l-1 4-3 1-19 1-8-1-2-6 1-10 3-7 7-6 10-6 14-7 7-4 22-13 15-9 17-9 15-9z" fill="#3B34C3"/>
<path transform="translate(401,156)" d="m0 0h12l12 5 18 10 24 14 25 14 48 28 10 9 4 7 2 7v141l-3 12-7 9-14 9-23 13-21 12-52 30-14 8-8 3h-13l-10-4-18-10-24-14-21-12-24-14-25-14-11-8-6-9-3-10v-142l3-10 9-10 13-8 23-13 26-15 24-14 26-15 15-8zm0 10-14 8-6 3-13 7v2l-6 2-5 3-9 5-5 3-3 1-1 2-12 6-1 2-6 2-4 3-4 2v2l-6 2-10 6-9 5-11 7-4 5-2 7v139l2 8 6 7 13 8 23 13 21 12 52 30 14 7 8 1 8-2 24-13 17-10 28-16 26-15 22-13 7-6 4-8v-144l-5-8-10-8-22-13-12-6-25-15-10-5-10-7-7-2-1-3-20-11-7-4-5-1z" fill="#3D36C4"/>
<path transform="translate(606,512)" d="m0 0 11 1 6 4 3 4 1 7-3 7-5 5-5 2h-12l-7-4-4-3-3 9-3 8-2 1-10 1v7h13l1 1v22l-3 2h-13v55l-17 1h-12l-2-1v-55l-20-2v56l-5 2h-26l-1-1v-58l-12 1-1-1v-24l1-1h8l4 1v-23h32v15l-1 7h9l12 4v-12l4-11 7-8 12-6h17l11 4 1-8 5-6z" fill="#3D36C4"/>
<path transform="translate(206,556)" d="m0 0h13l9 4 5 5 4 2 9-7 7-3 5-1h10l9 2 8 5 6 8 3 9 1 14v47l-2 1h-29l-1-1-1-52-3-6-8-1-6 3-1 1-1 16v38l-6 2h-25l-1-1-1-52-3-6-8-1-7 4-1 55-3 1h-28l-1-1v-83h29l1 6 11-6z" fill="#3D36C4"/>
<path transform="translate(410,178)" d="m0 0 13 4 21 12 26 15 28 16 25 15 8 7 4 9v40h-36l-4 5-11 9-8 9h-108l-4-5v-2h-2v-2l-5-2-9-2-9 2-5 4-5 10v10l4 8 5 4 9 3 9-2 5-3 7-8h115l3-1v-2l5-5 10-9h2l2-5h27l-3 2-23 1-1 3-16 14-4 5-6 2h-98l7 8 19 19 4 6 3 1 37 1v1h-110l-5-5v-2l-4-2-13-12-7-1h-29l-5-1v-60l1-1 41-1 12-12 6-5 3-4h110l6 8 8 3h10l8-4 6-9 1-8-2-8-4-6v-2l-4-1-3-2h-12l-8 4-4 4-2 4-115 1-4 2-1 3-7 6-6 5-1 2h-2l-1 3-2 1h-33l-1-1v-11l2-9 6-9 11-8 28-16 26-15 24-14 20-11 5-2zm-7 4-16 8-17 10-17 9-22 13-8 5-11 6-13 7-11 7-4 4-2 6-1 10 2 6 10 1 17-1 3-1 1-4 4-2 5-5 4-3v-2l4-2 7-4h106l3-2 5-1 9-8 4-1h13l7 4 6 8 1 3v10l-3 10-3 4v2l-10 3-18 1v-2l-5-5-5-6-107 1-4 6-8 7-1 3h-2l-1 5h-2l-1 6 10 7 10 1 3-1h8l10 5 2 3h2v2h3v2h105l11-12 11-9 1-1 34-1 1-4v-36l-6-8-3-3-16-8-11-7-16-8-18-10-36-21-15-7z" fill="#7D76EC"/>
<path transform="translate(529,313)" d="m0 0h3l1 4v22l-1 46-4 10-12 7-10 6-11 6-23 13-9 5-7 4h-2l-8-16-14-23v-3h17l3 2 2 7 5 2 2 1 11 1 9-3 6-4 5-10 1-5v-8l-3-7-4-4-2-1v-2l-7-2h-12l-9 4-7 5 2 4h-37l-4-2-7-9-22-22v-2l98-1 6-1 2-4 8-8 6-4 5-6 2-1z" fill="#3B34C3"/>
<path transform="translate(336,556)" d="m0 0h9l10 4 8 4-1-6h31l1 1v82l-7 1h-25l-1-6-5 2-7 4-5 1h-10l-10-3-11-8-6-10-4-12v-21l4-12 6-9 9-8 7-3zm9 25-6 3-4 5-2 9 1 9 4 8 5 2h10l7-6 2-6v-12l-4-8-8-4z" fill="#3C35C4"/>
<path transform="translate(690,556)" d="m0 0h9l9 2 9 6 5 8 2 7 1 62-4 1h-27l-1-1-1-53-2-4-3-2h-7l-6 4-1 55-3 1h-28l-1-1v-83h29l1 7 14-8z" fill="#3C35C4"/>
<path transform="translate(107,556)" d="m0 0h16l16 4 9 5 3 3-2 4-8 9-3 4-5-1-10-5-3-1h-11v5l7 4 19 6 11 6 6 9v12l-5 10-9 8-11 4-5 1h-17l-12-3-9-4-8-5 1-4 13-12 5-1 10 5 8 2h6l3-2-2-4-13-4-16-6-8-7-4-8v-13l4-8 8-7 8-4z" fill="#3C35C4"/>
<path transform="translate(460,556)" d="m0 0 14 1-8 34-13-1-8 2-3 4-1 45-2 1h-28l-2-1v-83h30l-1 10 5-1 2-4 10-6z" fill="#3D36C4"/>
<path transform="translate(402,164)" d="m0 0h11l7 3 14 7 2 2 3 1v2l6 1 4 4 9 5 36 21 8 5 11 6 19 11 7 5v2l4 2 2 3v5l-3-4-5-6-15-10-14-8-12-6-25-15-10-5-10-7-7-3-4-4-10-5-14-8-5-1h-10l-14 8-6 3-11 6h-2v2l-11 6-9 5-5 3h-3l-1 3-6 3-3 2h-3l-1 3-6 2-4 3-3 1-3 3-11 6-12 7-9 6h-2l-2 4-3 8v139l2 8 5 6 13 8 23 13 21 12 52 30 14 7 8 1 8-2 24-13 17-10 28-16 26-15 22-13 6-5 4-8 1-142h1l1 145-3 9-7 6-14 7-11 6-4 3-11 6-12 7h-2v2l-8 2v2l-22 12-5 3-22 12-4 2h-3v2l-9 3-11-1-8-4-22-13-6-3-22-13-11-6-17-10-11-6-14-9-2-2-7-2-9-7-4-9v-19-3-9l1-13-1-3-1-10 1-45 1-8-2-9v-8l1-8 1-11 2-2v-6l5-2v-3h2v-2l8-4 5-3 8-5 17-10 8-4h2v-2l12-6 9-6 14-7 13-8 19-10z" fill="#7C75EB"/>
<path transform="translate(594,558)" d="m0 0h30l1 1v82l-3 1h-28l-1-1v-82z" fill="#3E37C5"/>
<path transform="translate(410,178)" d="m0 0 13 4 21 12 26 15 28 16 25 15 8 7 4 9v40h-36l-4 5-11 9-8 9h-108l-4-5v-2h-2v-2l-5-2-9-2h-6l3-2h8l10 5 2 4h2v2h3v2l105-1 9-10 14-12 34-1v-39l-6-8-5-3-16-9-11-6-17-9-14-8-36-21-15-7h-9l-16 8-17 10-17 9-22 13-8 5-11 6-13 7-11 7-3 3h-2l2-5 10-8 25-14 38-22 28-16 14-7z" fill="#7D76EC"/>
<path transform="translate(402,164)" d="m0 0h11l7 3 14 7 2 2 3 1v2l6 1 4 4 9 5 36 21 8 5 11 6 19 11 7 5v2l4 2 2 3v5l-3-4-5-6-15-10-14-8-12-6-25-15-10-5-10-7-7-3-4-4-10-5-14-8-5-1h-10l-14 8-3-1 5-4z" fill="#7D76EC"/>
<path transform="translate(465,360)" d="m0 0h12l7 3v2l5 2 4 6 1 4v10l-5 12-6 5-6 3-7 1-9-1-7-4-3-7-7-2 1-2 7 1 3 5 12 5 9-1 8-5 5-8v-12l-4-7-7-6-3-1h-12l-6 3-5 7-4-2 5-5 6-4z" fill="#7D76EC"/>
<path transform="translate(498,294)" d="m0 0h31v1l-30 1-4 5-11 9-8 9h-108l-4-5v-2h-2v-2l-5-2-9-2h-6l3-2h8l10 5 2 4h2v2h3v2l105-1 9-10z" fill="#7D76EC"/>
<path transform="translate(466,250)" d="m0 0h7l5 3 2 4-1 9-6 5h-7l-6-5-1-2v-7l3-5z" fill="#7D76EC"/>
<path transform="translate(347,316)" d="m0 0 7 2 4 4 1 7-4 6-5 3-6-1-5-5-1-8 3-5z" fill="#7A73EA"/>
<path transform="translate(468,372)" d="m0 0 8 2 3 4v10l-6 5h-9l-4-5-1-7 4-7z" fill="#7C75EB"/>
<path transform="translate(533,256)" d="m0 0h2v40h-5l-1-2 3-2z" fill="#7C75EB"/>
<path transform="translate(468,372)" d="m0 0 5 2-5 5-2 1-2-1v2l-3-1 1-5z" fill="#413AC7"/>
<path transform="translate(449,187)" d="m0 0" fill="#7D76EC"/>
</svg>
